# AST/ASF file generated using VICON BodyLanguage
# -----------------------------------------------
:version 1.10
:name VICON
:units
  mass 1.0
  length 0.45
  angle deg
:documentation
   .ast/.asf automatically generated from VICON data using
   VICON BodyBuilder and BodyLanguage model FoxedUp or BRILLIANT.MOD
:root
   order TX TY TZ RX RY RZ
   axis XYZ
   position 0 0 0  
   orientation 0 0 0 
:bonedata
  begin
     id 1 
     name lhipjoint
     direction 0.714689 -0.624256 0.315473 
     length 2.45343 
     axis 0 0 0  XYZ
  end
  begin
     id 2 
     name lfemur
     direction 0.34202 -0.939693 0  
     length 6.59069  
     axis 0 0 20  XYZ
    dof rx ry rz
    limits (-160.0 20.0)
           (-70.0 70.0)
           (-60.0 70.0)
  end
  begin
     id 3 
     name ltibia
     direction 0.34202 -0.939693 0   
     length 6.73476   
     axis 0 0 20   XYZ
    dof rx
    limits (-10.0 170.0)
  end
  begin
     id 4 
     name lfoot
     direction 0.0718085 -0.197292 0.977711   
     length 1.52607   
     axis -90 7.62852e-016 20   XYZ
    dof rx rz
    limits (-45.0 90.0)
           (-70.0 20.0)
  end
  begin
     id 5 
     name ltoes
     direction 1.53553e-011 -4.22024e-011 1   
     length 0.777832   
     axis -90 7.62852e-016 20   XYZ
    dof rx
    limits (-90.0 20.0)
  end
  begin
     id 6 
     name rhipjoint
     direction -0.727419 -0.612432 0.309497   
     length 2.50079  
     axis 0 0 0  XYZ 
  end
  begin
     id 7 
     name rfemur
     direction -0.34202 -0.939693 0   
     length 6.51665   
     axis 0 0 -20   XYZ
    dof rx ry rz
    limits (-160.0 20.0)
           (-70.0 70.0)
           (-70.0 60.0)
  end
  begin
     id 8 
     name rtibia
     direction -0.34202 -0.939693 0   
     length 6.48919   
     axis 0 0 -20   XYZ
    dof rx
    limits (-10.0 170.0)
 end
 begin
     id 9 
     name rfoot
     direction -0.112205 -0.308282 0.944655   
     length 1.68717  
     axis -90 -7.62852e-016 -20   XYZ
    dof rx rz
    limits (-45.0 90.0)
           (-20.0 70.0)
  end
  begin
     id 10 
     name rtoes
     direction -1.53583e-011 -4.21993e-011 1   
     length 0.846859   
     axis -90 -7.62852e-016 -20   XYZ
    dof rx
    limits (-90.0 20.0)
  end
  begin
     id 11 
     name lowerback
     direction -0.00119603 0.996364 -0.0851956   
     length 1.67242   
     axis 0 0 0   XYZ
    dof rx ry rz
    limits (-20.0 45.0)
           (-30.0 30.0)
           (-30.0 30.0)
  end
  begin
     id 12 
     name upperback
     direction -0.00531001 0.998318 0.0577248   
     length 1.64819   
     axis 0 0 0   XYZ
    dof rx ry rz
    limits (-20.0 45.0)
           (-30.0 30.0)
           (-30.0 30.0)
  end
  begin
     id 13 
     name thorax
     direction -0.00653676 0.995132 0.0983291   
     length 1.67429   
     axis 0 0 0   XYZ
    dof rx ry rz
    limits (-20.0 45.0)
           (-30.0 30.0)
           (-30.0 30.0)
  end
  begin
     id 14 
     name lowerneck
     direction 0.0141424 0.999886 0.00525412   
     length 1.59623   
     axis 0 0 0   XYZ
    dof rx ry rz
    limits (-20.0 45.0)
           (-30.0 30.0)
           (-30.0 30.0)
  end
  begin
     id 15 
     name upperneck
     direction -0.0640064 0.987178 -0.146232   
     length 1.59576   
     axis 0 0 0   XYZ
    dof rx ry rz
    limits (-20.0 45.0)
           (-30.0 30.0)
           (-30.0 30.0)
  end
  begin
     id 16
     name head
     direction -0.0222942 0.998496 -0.0500859  
     length 1.60959  
     axis 0 0 0   XYZ
    dof rx ry rz
    limits (-20.0 45.0)
           (-30.0 30.0)
           (-30.0 30.0)
  end
  begin
     id 17 
     name lclavicle
     direction 0.908549 0.392612 0.142806  
     length 2.80649  
     axis 0 0 0   XYZ
    dof ry rz
    limits (-20.0 10.0)
           (0.0 20.0)
  end
  begin
     id 18 
     name lhumerus
     direction 1 -4.48968e-011 1.08832e-028   
     length 4.2884   
     axis -180 -30 -90   XYZ
    dof rx ry rz
    limits (-60.0 90.0)
           (-90.0 90.0)
           (-90.0 90.0)
  end
  begin
     id 19
     name lradius
     direction 1 -4.48952e-011 -3.02642e-028   
     length 3.06552   
     axis -180 -30 -90   XYZ
    dof rx
    limits (-10.0 170.0)
  end
  begin
     id 20
     name lwrist
     direction 1 -4.49014e-011 1.58672e-027   
     length 1.53276   
     axis -1.65735e-015 90 90   XYZ
    dof ry
    limits (-180.0 0.0)
 end
  begin
     id 21 
     name lhand
     direction 1 -4.48928e-011 3.17344e-027   
     length 0.753045   
     axis -2.02492e-015 90 90   XYZ
    dof rx rz
    limits (-90.0 90.0)
           (-45.0 45.0)
  end
  begin
     id 22 
     name lfingers
     direction 1 -4.48958e-011 6.34687e-027   
     length 0.607124   
     axis -4.04985e-015 90 90   XYZ
    dof rx
    limits (0.0 90.0)
  end
  begin
     id 23
     name lthumb
     direction 0.707107 -6.34905e-011 0.707107   
     length 0.871712   
     axis -90 45 2.85299e-015   XYZ
    dof rx rz
    limits (-45.0 45.0)
           (-45.0 45.0)
  end
  begin
     id 24 
     name rclavicle
     direction -0.885098 0.45949 0.0739604   
     length 2.9478  
     axis 0 0 0   XYZ 
    dof ry rz
    limits (-10.0 20.0)
           (-20.0 0.0)
  end
  begin
     id 25 
     name rhumerus
     direction -1 -4.4898e-011 -2.61739e-027  
     length 4.52172   
     axis -180 30 90   XYZ
    dof rx ry rz
    limits (-90.0 60.0)
           (-90.0 90.0)
           (-90.0 90.0)
  end
  begin
     id 26 
     name rradius
     direction -1 -4.48945e-011 9.02552e-028   
     length 2.8914   
     axis -180 30 90   XYZ
    dof rx
    limits (-10.0 170.0)
  end
  begin
     id 27 
     name rwrist
     direction -1 -4.49018e-011 1.58672e-027   
     length 1.4457   
     axis -1.65735e-015 -90 -90   XYZ
    dof ry
    limits (-180.0 0.0)
  end
  begin
     id 28
     name rhand
     direction -1 -4.48825e-011 3.17344e-027   
     length 0.680541   
     axis -2.02492e-015 -90 -90   XYZ
    dof rx rz
    limits (-90.0 90.0)
           (-45.0 45.0)
  end
  begin
     id 29
     name rfingers
     direction -1 -4.49067e-011 6.34687e-027   
     length 0.54867   
     axis -4.04985e-015 -90 -90   XYZ
    dof rx
    limits (0.0 90.0)
  end
  begin
     id 30
     name rthumb
     direction -0.707107 -6.34833e-011 0.707107   
     length 0.787783   
     axis -90 -45 -2.85299e-015   XYZ
    dof rx rz
    limits (-45.0 45.0)
           (-45.0 45.0)
  end
:hierarchy
  begin
    root lhipjoint rhipjoint lowerback
    lhipjoint lfemur
    lfemur ltibia
    ltibia lfoot
    lfoot ltoes
    rhipjoint rfemur
    rfemur rtibia
    rtibia rfoot
    rfoot rtoes
    lowerback upperback
    upperback thorax
    thorax lowerneck lclavicle rclavicle
    lowerneck upperneck
    upperneck head
    lclavicle lhumerus
    lhumerus lradius
    lradius lwrist
    lwrist lhand lthumb
    lhand lfingers
    rclavicle rhumerus
    rhumerus rradius
    rradius rwrist
    rwrist rhand rthumb
    rhand rfingers
  end

#!OML:ASF E:\emotionWalksFemale\Project 1\Capture day 1\Session 1\Female1.ASF
:FULLY-SPECIFIED
:DEGREES
642
root 24.0153 15.2246 7.58027 179.508 -50.5101 -174.044
lowerback 7.12476 0.0122102 -2.41693
upperback -3.39996 -0.222536 0.437233
thorax -7.56827 0.0152622 1.85016
lowerneck -9.88827 -0.259158 -1.27847
upperneck 12.3824 -0.511185 1.93632
head 5.36252 -0.2114 0.772461
rclavicle -3.25789e-014 0
rhumerus -54.6161 4.56506 -83.3827
rradius 36.8463
rwrist 17.7658
rhand -12.1635 -57.3091
rfingers 7.12502
rthumb 13.8994 -446.825
lclavicle -3.25789e-014 0
lhumerus -21.5865 -15.7729 91.4114
lradius 35.832
lwrist -22.2465
lhand -3.00928 -29.4067
lfingers 7.12502
lthumb 22.7051 -0.722502
rfemur -34.0007 21.9904 11.856
rtibia 22.9089
rfoot -25.8104 -38.1748
rtoes -1.12724
lfemur 15.8303 -20.1589 -35.7025
ltibia 6.00306
lfoot -17.5104 9.97206
ltoes -3.96988
643
root 23.9343 15.2049 7.44925 179.756 -50.8931 -174.32
lowerback 7.04815 -0.0112911 -2.78832
upperback -3.37217 -0.295453 0.354651
thorax -7.49066 -0.00577594 1.98132
lowerneck -9.91012 -0.282202 -1.40057
upperneck 12.4064 -0.558049 2.17639
head 5.37538 -0.223429 0.864044
rclavicle -2.80038e-014 2.06736e-014
rhumerus -54.7006 4.25036 -83.0104
rradius 37.1177
rwrist 17.5793
rhand -12.1982 -57.2154
rfingers 7.12502
rthumb 13.866 -446.733
lclavicle -2.80038e-014 2.06736e-014
lhumerus -20.8678 -15.7152 91.1236
lradius 35.85
lwrist -22.4245
lhand -2.90238 -29.1234
lfingers 7.12502
lthumb 22.8076 -0.451793
rfemur -35.1464 26.2259 9.45514
rtibia 21.9443
rfoot -30.7162 -41.3816
rtoes 5.25258
lfemur 17.5401 -19.7969 -35.8079
ltibia 3.74666
lfoot -16.2525 9.81965
ltoes -6.33214
644
root 23.8558 15.1829 7.31702 180.191 -51.3599 -174.834
lowerback 6.99512 -0.015306 -3.47942
upperback -3.33402 -0.368555 0.354704
thorax -7.41484 -0.00934473 2.37949
lowerneck -9.90546 -0.374421 -1.53764
upperneck 12.3312 -0.654724 2.15664
head 5.3533 -0.277379 0.873008
rclavicle -3.31101e-015 5.56597e-015
rhumerus -54.7262 4.3941 -82.738
rradius 37.3505
rwrist 16.8331
rhand -12.6533 -57.3054
rfingers 7.12502
rthumb 13.4274 -446.853
lclavicle -3.31101e-015 5.56597e-015
lhumerus -19.8955 -15.2599 91.0304
lradius 35.4899
lwrist -22.9989
lhand -3.06857 -29.0035
lfingers 7.12502
lthumb 22.6482 -0.312328
rfemur -36.6064 30.7139 6.39791
rtibia 21.0898
rfoot -37.9249 -43.5399
rtoes 14.2502
lfemur 19.4894 -19.5351 -35.9864
ltibia 1.09906
lfoot -15.0997 8.81154
ltoes -2.53809
645
root 23.7806 15.1614 7.17467 180.592 -51.8225 -175.173
lowerback 6.82731 -0.0216121 -4.10494
upperback -3.31048 -0.432493 0.36077
thorax -7.28794 -0.0135112 2.74482
lowerneck -10.0093 -0.454059 -1.60273
upperneck 12.2797 -0.740419 2.11432
head 5.35664 -0.323026 0.86397
rclavicle -1.81143e-014 -5.56597e-015
rhumerus -54.597 4.53916 -82.5404
rradius 37.3827
rwrist 16.2662
rhand -12.8017 -57.5196
rfingers 7.12502
rthumb 13.2844 -447.076
lclavicle -1.81143e-014 -5.56597e-015
lhumerus -18.8313 -14.5972 90.8761
lradius 34.9743
lwrist -23.5857
lhand -3.22483 -28.9737
lfingers 7.12502
lthumb 22.4982 -0.264361
rfemur -38.9422 36.5202 2.25884
rtibia 20.4108
rfoot -47.2476 -45.7359
rtoes 22.8614
lfemur 20.5682 -19.3195 -35.9478
ltibia -2.54444e-014
lfoot -14.5406 7.7074
ltoes 1.10234
646
root 23.6923 15.1439 7.06 181.102 -52.2628 -175.356
lowerback 6.63045 -0.0747888 -3.99892
upperback -3.44229 -0.505106 0.16951
thorax -7.31083 -0.0591449 2.4919
lowerneck -9.97857 -0.472486 -1.28137
upperneck 12.2837 -0.806263 2.03577
head 5.35254 -0.346406 0.781856
rclavicle -9.41618e-014 -4.53229e-014
rhumerus -54.5966 4.25241 -82.3002
rradius 37.3679
rwrist 16.1133
rhand -12.884 -57.4738
rfingers 7.12502
rthumb 13.2051 -447.036
lclavicle -9.41618e-014 -4.53229e-014
lhumerus -18.2227 -14.3455 90.5577
lradius 34.8522
lwrist -23.7085
lhand -3.4285 -28.9802
lfingers 7.12502
lthumb 22.3027 -0.247289
rfemur -41.5666 40.5651 -1.57259
rtibia 19.8454
rfoot -53.6387 -47.4593
rtoes 26.5597
lfemur 20.7196 -19.1293 -35.7961
ltibia -3.49861e-014
lfoot -14.1196 6.56949
ltoes 3.96987
647
root 23.6004 15.1287 6.93111 181.387 -52.742 -175.489
lowerback 6.51004 -0.119461 -4.13429
upperback -3.52914 -0.585273 0.0658232
thorax -7.32888 -0.0946228 2.46838
lowerneck -9.84951 -0.552484 -1.27022
upperneck 12.1476 -0.920895 2.08667
head 5.29055 -0.398966 0.78743
rclavicle -2.2121e-014 -2.38542e-014
rhumerus -54.612 4.04021 -82.0588
rradius 37.1222
rwrist 15.9181
rhand -13.4695 -57.1221
rfingers 7.12502
rthumb 12.6406 -446.72
lclavicle -2.2121e-014 -2.38542e-014
lhumerus -18.0867 -14.4433 90.2581
lradius 35.1983
lwrist -23.515
lhand -3.49613 -29.1409
lfingers 7.12502
lthumb 22.2377 -0.400257
rfemur -41.8629 40.7928 -2.12162
rtibia 19.3305
rfoot -55.2989 -45.4114
rtoes 30.4423
lfemur 21.1408 -18.9362 -35.6382
ltibia 3.18055e-014
lfoot -13.7087 5.72325
ltoes 4.69588
648
root 23.5043 15.1279 6.79974 181.682 -53.1789 -175.767
lowerback 6.51441 -0.139433 -4.44741
upperback -3.55899 -0.648242 0.0196852
thorax -7.35843 -0.110931 2.60408
lowerneck -9.81494 -0.63804 -1.37687
upperneck 11.9965 -1.02083 2.13495
head 5.24022 -0.448454 0.812585
rclavicle -7.21837e-014 -1.90833e-014
rhumerus -54.4845 4.03355 -81.7643
rradius 36.7897
rwrist 15.6025
rhand -13.733 -56.918
rfingers 7.12502
rthumb 12.3865 -446.531
lclavicle -7.21837e-014 -1.90833e-014
lhumerus -18.1069 -14.6411 90.0473
lradius 35.815
lwrist -23.1063
lhand -3.21308 -29.1891
lfingers 7.12502
lthumb 22.5095 -0.481054
rfemur -42.1873 40.9699 -2.52895
rtibia 18.7936
rfoot -51.5805 -48.6298
rtoes 24.3837
lfemur 21.6455 -18.691 -35.5463
ltibia 8.5875e-014
lfoot -13.4605 4.84533
ltoes 6.2557
649
root 23.4095 15.1123 6.67128 181.836 -53.5926 -175.863
lowerback 6.53426 -0.182497 -4.57122
upperback -3.58839 -0.719752 0.0311314
thorax -7.39533 -0.138468 2.69527
lowerneck -9.7355 -0.692203 -1.30915
upperneck 11.8428 -1.06285 1.87052
head 5.17813 -0.483105 0.716216
rclavicle -2.29845e-016 5.56597e-015
rhumerus -54.3521 4.10877 -81.4086
rradius 36.5952
rwrist 15.1979
rhand -13.8925 -56.9117
rfingers 7.12502
rthumb 12.2328 -446.534
lclavicle -2.29845e-016 5.56597e-015
lhumerus -18.079 -14.7657 89.9161
lradius 36.3471
lwrist -22.4863
lhand -3.05969 -28.9145
lfingers 7.12502
lthumb 22.6567 -0.224434
rfemur -42.5456 41.9327 -3.23626
rtibia 18.4856
rfoot -51.4233 -48.4613
rtoes 25.9286
lfemur 22.1336 -18.4259 -35.3292
ltibia 3.81667e-014
lfoot -13.079 3.92931
ltoes 7.76074
650
root 23.3054 15.1168 6.54277 181.777 -54.0269 -175.689
lowerback 6.47112 -0.250654 -4.50483
upperback -3.60296 -0.796098 0.107654
thorax -7.36744 -0.177425 2.74749
lowerneck -9.73678 -0.726901 -1.05704
upperneck 11.8594 -1.1046 1.54933
head 5.18113 -0.51373 0.571929
rclavicle 1.19718e-013 -9.54166e-015
rhumerus -54.1693 4.03093 -80.8856
rradius 36.2883
rwrist 15.1872
rhand -14.4588 -56.7221
rfingers 7.12502
rthumb 11.6867 -446.376
lclavicle 1.19718e-013 -9.54166e-015
lhumerus -17.8779 -14.5088 89.8657
lradius 36.5631
lwrist -21.9591
lhand -3.22672 -28.5408
lfingers 7.12502
lthumb 22.4964 0.168824
rfemur -39.3827 35.4349 2.35316
rtibia 18.3956
rfoot -37.7228 -46.5116
rtoes 15.1196
lfemur 22.6062 -18.1808 -34.9419
ltibia 4.45278e-014
lfoot -12.4177 3.22896
ltoes 5.52646
651
root 23.197 15.1176 6.40525 181.826 -54.3915 -175.751
lowerback 6.45332 -0.31577 -4.56074
upperback -3.64705 -0.89493 0.049031
thorax -7.39689 -0.224133 2.72966
lowerneck -9.84554 -0.731895 -1.41259
upperneck 11.9559 -1.1017 1.87051
head 5.23304 -0.506041 0.729999
rclavicle 2.39411e-014 2.38542e-015
rhumerus -54.1209 3.75968 -80.5431
rradius 35.9053
rwrist 15.3398
rhand -14.7017 -56.535
rfingers 7.12502
rthumb 11.4524 -446.202
lclavicle 2.39411e-014 2.38542e-015
lhumerus -17.8937 -14.1517 89.637
lradius 36.8175
lwrist -21.5073
lhand -3.38079 -28.3483
lfingers 7.12502
lthumb 22.3485 0.379074
rfemur -36.9509 28.8129 7.22642
rtibia 18.4972
rfoot -26.9556 -42.2186
rtoes 3.97399
lfemur 23.1957 -17.8573 -34.7009
ltibia 6.04305e-014
lfoot -11.6108 2.37179
ltoes 3.99231
652
root 23.0891 15.1072 6.2625 181.966 -54.7139 -175.945
lowerback 6.42303 -0.406116 -4.78366
upperback -3.74517 -1.04581 0.00204307
thorax -7.47141 -0.286312 2.82484
lowerneck -9.65519 -0.674407 -1.47624
upperneck 11.9273 -1.0173 1.86483
head 5.19079 -0.469993 0.745235
rclavicle 8.59371e-014 -3.18055e-015
rhumerus -54.2011 3.7042 -80.3624
rradius 35.5844
rwrist 15.2609
rhand -14.477 -56.5896
rfingers 7.12502
rthumb 11.6691 -446.245
lclavicle 8.59371e-014 -3.18055e-015
lhumerus -18.143 -13.6043 89.3498
lradius 37.0474
lwrist -21.2268
lhand -3.48522 -28.389
lfingers 7.12502
lthumb 22.2482 0.350373
rfemur -36.6206 29.7662 7.30532
rtibia 18.7989
rfoot -26.9125 -42.1189
rtoes 4.87858
lfemur 23.8287 -17.5001 -34.5167
ltibia -5.08889e-014
lfoot -10.6455 1.36811
ltoes 5.03148
653
root 22.9728 15.1119 6.12713 182.123 -55.0979 -176.133
lowerback 6.38617 -0.455884 -4.89557
upperback -3.81348 -1.12661 -0.0105372
thorax -7.51586 -0.319267 2.88468
lowerneck -9.60089 -0.702674 -1.61729
upperneck 12.0319 -1.03616 1.84115
head 5.21497 -0.48853 0.759633
rclavicle 2.71403e-014 1.59028e-014
rhumerus -54.1953 3.69855 -80.0153
rradius 35.1897
rwrist 15.4152
rhand -14.0631 -56.5259
rfingers 7.12502
rthumb 12.0683 -446.158
lclavicle 2.71403e-014 1.59028e-014
lhumerus -18.2869 -13.1029 89.2594
lradius 37.1272
lwrist -20.9744
lhand -3.71609 -28.1153
lfingers 7.12502
lthumb 22.0266 0.650423
rfemur -35.3121 25.9379 10.0052
rtibia 19.3295
rfoot -22.4355 -38.5661
rtoes -0.589858
lfemur 24.3646 -17.2048 -34.338
ltibia 2.54444e-014
lfoot -9.46427 0.443127
ltoes 4.39542
